<?xml version="1.0" encoding="UTF-8" standalone="no"?>
<!-- Created with Inkscape (http://www.inkscape.org/) -->

<svg
   version="1.1"
   id="svg1"
   width="1335"
   height="1335"
   viewBox="0 0 1335 1335"
   sodipodi:docname="Gospel Library.svg"
   inkscape:version="1.4 (e7c3feb100, 2024-10-09)"
   xml:space="preserve"
   inkscape:export-filename="Gospel Library.png"
   inkscape:export-xdpi="143.82022"
   inkscape:export-ydpi="143.82022"
   xmlns:inkscape="http://www.inkscape.org/namespaces/inkscape"
   xmlns:sodipodi="http://sodipodi.sourceforge.net/DTD/sodipodi-0.dtd"
   xmlns="http://www.w3.org/2000/svg"
   xmlns:svg="http://www.w3.org/2000/svg"><defs
     id="defs1" /><sodipodi:namedview
     id="namedview1"
     pagecolor="#505050"
     bordercolor="#eeeeee"
     borderopacity="1"
     inkscape:showpageshadow="0"
     inkscape:pageopacity="0"
     inkscape:pagecheckerboard="0"
     inkscape:deskcolor="#505050"
     inkscape:zoom="0.35355339"
     inkscape:cx="838.62864"
     inkscape:cy="476.58997"
     inkscape:window-width="1920"
     inkscape:window-height="987"
     inkscape:window-x="0"
     inkscape:window-y="0"
     inkscape:window-maximized="1"
     inkscape:current-layer="g1"
     showgrid="false"><inkscape:grid
       id="grid34219"
       units="px"
       originx="0"
       originy="0"
       spacingx="1"
       spacingy="1"
       empcolor="#0099e5"
       empopacity="0.30196078"
       color="#0099e5"
       opacity="0.14901961"
       empspacing="5"
       enabled="true"
       visible="false" /></sodipodi:namedview><g
     inkscape:groupmode="layer"
     inkscape:label="Image"
     id="g1"><rect
       style="display:inline;fill:#006184;fill-opacity:1;stroke:none;stroke-width:4.30087"
       id="rect34217"
       width="1335"
       height="1335"
       x="0"
       y="0"
       inkscape:label="Back" /><path
       style="display:inline;fill:#146d8e;fill-opacity:1;stroke:none;stroke-width:4.3443"
       d="M 1335,275 950,200 0,885 V 0 h 1335 z"
       id="path34219"
       sodipodi:nodetypes="cccccc"
       inkscape:label="Part 1" /><path
       style="display:inline;fill:#2b7b99;fill-opacity:1;stroke:none;stroke-width:4.3443"
       d="M 1335,275 780,165 0,465 V 0 h 1335 z"
       id="path34219-5"
       sodipodi:nodetypes="cccccc"
       inkscape:label="Part 2" /><path
       style="display:inline;fill:#418aa5;fill-opacity:1;stroke:none;stroke-width:4.3443"
       d="M 1335,275 0,15 V 0 h 1335 z"
       id="path34219-5-9"
       sodipodi:nodetypes="ccccc"
       inkscape:label="Part 3" /><path
       style="display:inline;fill:#307f9c;fill-opacity:1;stroke:none;stroke-width:4.3443"
       d="M 1335.0186,275 776.4,166.39175 1200.0186,0 h 135 z"
       id="path34219-5-2"
       sodipodi:nodetypes="ccccc"
       inkscape:label="Part 4" /><path
       style="display:inline;fill:#1e7493;fill-opacity:1;stroke:none;stroke-width:4.3443"
       d="M 1334.9875,275 949.8,200.15625 1224.9875,0 h 110 z"
       id="path34219-5-2-3"
       sodipodi:nodetypes="ccccc"
       inkscape:label="Part 5" /><path
       id="rect34216"
       style="display:inline;fill:#ffffff;stroke:none;stroke-width:1.48054"
       d="m 644.75,153.525 8.75,0.35 c -30.73087,0 -62.51059,6.65368 -91.7,15.97969 C 448.94441,205.91187 359.25071,299.56387 329.09033,414.275 322.57353,439.06083 317.85,465.24845 317.85,490.925 h -0.35 v 690.55 h 700 v -691.95 h -0.35 c 0,-26.00869 -5.072,-52.65423 -11.8474,-77.7 C 972.7712,291.5689 873.1951,192.60409 751.5,163.71533 728.7223,158.30819 704.9723,153.875 681.5,153.875 v -0.35 z m 18.08994,17.1165 c 54.51736,-0.688 109.11236,11.83114 158.31006,37.22373 32.1237,16.58014 61.238,38.81967 86.4452,64.65977 28.6106,29.32908 51.5697,64.80896 67.4065,102.55 13.5536,32.30006 21.2781,66.36405 24.5888,101.15 2.2895,24.05575 1.1095,48.62697 1.1095,72.8 v 112 503.65 H 710.2 c 2.6137,-4.9937 -0.1738,-8.2211 -3.8514,-11.8986 -5.78,-5.7801 -13.9211,-11.2029 -17.3892,-18.9014 -2.0144,-4.4715 -0.8362,-9.1676 0.4429,-13.65 1.7357,-6.0822 3.7336,-12.0815 5.3574,-18.2 0.5438,-2.0491 4.5356,-8.96 2.6304,-10.6415 -1.3477,-1.1894 -4.1738,2.7982 -5.0401,3.582 -4.851,4.3892 -9.9241,8.5956 -15.05,12.6581 -5.582,4.4243 -14.4965,7.4263 -18.61973,13.3014 -1.90107,2.7088 -3.12122,8.9777 -2.61474,12.25 0.35119,2.2691 1.45084,4.3182 1.60303,6.65 0.40505,6.2062 -2.35091,12.1995 -1.20587,18.55 0.44927,2.4916 1.87222,4.1406 2.98731,6.3 h -72.8 c 1.7886,-4.3609 3.06927,-9.2513 3.14863,-14 0.0528,-3.1601 0.65591,-6.2793 0.20166,-9.45 -1.02917,-7.1837 -8.13478,-13.7977 -15.60029,-10.0529 -4.34362,2.1787 -6.19479,7.0537 -9.50947,10.3421 -5.37995,5.3372 -10.85428,9.1312 -17.44053,12.5856 -3.91018,2.0509 -8.3492,6.2 -5.6,10.5752 H 334.3 v -518 -105 c 0,-28.22578 -0.52424,-56.33881 3.24912,-84.35 5.2647,-39.08199 18.01558,-77.34342 36.75889,-112 17.40348,-32.17923 40.29472,-62.17695 67.44199,-86.74053 28.59159,-25.87043 60.99487,-47.27059 96.6,-62.21113 39.73205,-16.67223 82.08756,-25.19672 124.48994,-25.73184 z m 15.21136,145.63897 c -1.5609,-0.1783 -3.1123,-0.15894 -4.6013,0.11006 -2.7959,0.50509 -3.6311,2.60868 -3.997,5.13447 -0.6854,4.73149 -1.1157,12.51951 1.3255,16.8 4.7496,8.32805 14.7026,5.10286 21.9215,8.02539 4.281,1.73317 6.5968,7.66112 9.8,10.87461 2.2756,2.28295 3.6063,4.82686 5.5262,7.33428 0.6454,0.84287 1.6566,1.83177 2.8273,1.46767 1.7962,-0.55807 1.7957,-3.46846 1.7958,-4.95195 4e-4,-5.21249 -3.4786,-9.2145 -5.0196,-14 -3.441,-10.68559 -7.7204,-18.31681 -16.6797,-25.27246 -3.4458,-2.67518 -8.2161,-4.98718 -12.8987,-5.52207 z m -18.26292,0.98711 c -1.3226,-0.138 -2.72491,0.002 -3.83838,0.16269 -14.41223,2.0777 -24.01033,18.85147 -27.74776,31.39473 -1.12942,3.79053 -1.17569,7.83022 -2.47324,11.55 -2.53143,7.25712 -6.91769,12.62615 -6.879,20.65 0.0252,5.22872 2.42266,10.17581 2.42266,15.4 0,4.23828 -1.95269,8.1393 -2.61954,12.25 -0.47366,2.91989 -0.23866,6.5026 -1.84843,9.1 -2.10592,3.39798 -6.38622,4.86548 -8.3084,8.4 -1.92318,3.5364 -1.06852,8.1845 -2.71865,11.9 -2.58087,5.81106 -6.9805,6.99778 -11.76397,9.96885 -3.18238,1.97661 -4.05476,6.04015 -7.36367,8.02676 -0.85328,0.51227 -3.02999,1.28131 -2.82734,2.58945 0.22998,1.48468 3.52492,1.27969 4.57734,1.19013 2.434,-0.20721 4.88684,-2.31259 7.35,-1.67206 3.59045,0.93361 4.45656,5.04705 8.75,4.71406 4.87323,-0.37794 4.51843,-5.50353 8.05137,-7.58721 3.5292,-2.08146 6.80261,-0.6495 9.9333,-4.29365 5.06261,-5.89301 3.38565,-10.22375 4.12617,-17.13633 0.50817,-4.74354 3.79476,-8.57637 4.3873,-13.3 0.49302,-3.93024 -1.80111,-7.65933 -1.61123,-11.55 0.23258,-4.7649 3.42285,-8.6443 3.08165,-13.65 -0.55416,-8.13015 -5.85148,-16.81615 -2.60997,-24.85 1.38612,-3.4354 4.01682,-6.08698 5.48516,-9.45 2.01267,-4.60981 1.84472,-10.33901 6.60625,-13.30205 5.09211,-3.16872 16.4036,-1.09939 19.40449,-6.99932 2.32328,-4.56768 1.84539,-10.78454 2.49717,-15.74863 0.2481,-1.88954 0.609,-4.68373 -0.70342,-6.25352 -0.79436,-0.95015 -2.03726,-1.3659 -3.35986,-1.5039 z M 666.1,342.875 c -1.08429,2.31798 -1.80809,4.8213 -3.86436,6.51328 -5.44091,4.47703 -13.43167,4.68262 -18.82617,9.74053 -4.91903,4.61204 -4.02211,10.29543 -5.17344,16.29619 -0.52188,2.72011 -1.90974,5.28623 -2.17382,8.05 -0.45692,4.78208 2.99646,9.12222 3.95664,13.65 0.7616,3.59151 -0.0378,7.54765 0.21259,11.2 0.33358,4.86642 1.93972,9.42214 3.46856,14 2.20566,6.60445 7.12706,12.76235 3.57588,19.6 -2.43417,4.68698 -6.6879,10.12092 -11.62588,12.29307 -3.93902,1.73265 -8.47573,1.80725 -12.25,3.99219 -5.08476,2.94355 -7.69633,8.99908 -12.95,12.02783 -3.17198,1.82865 -6.65511,0.0985 -9.8,1.38017 -6.59589,2.6881 -12.65031,8.71138 -17.85,13.41621 -13.2827,12.01852 -20.78762,28.7441 -31.85137,42.64053 -4.1608,5.22613 -8.62996,10.52566 -13.64863,14.95018 -3.18922,2.81166 -8.04878,5.22319 -10.62715,8.53265 -6.45278,8.2824 -8.25894,19.6552 -15.97422,27.26238 -4.04243,3.98583 -9.35776,6.21652 -13.23916,10.50479 -4.909,5.42364 -9.10264,11.445 -14.09091,16.8 -7.13337,7.65779 -15.41177,14.50326 -23.76856,20.78055 -4.19287,3.14951 -9.11792,8.0668 -14,9.97024 -4.15878,1.62145 -7.51663,-1.5148 -11.2,-2.85743 -6.25761,-2.28106 -13.73069,-3.62702 -20.3,-4.76533 -2.50828,-0.43466 -8.80036,-2.98007 -10.48838,0.0225 -2.00466,3.5658 7.72474,5.19865 9.78838,6.17284 7.01018,3.30946 10.23713,10.97743 17.15,13.95832 3.55494,1.53289 7.14093,1.00544 10.85,0.56808 1.77947,-0.20982 4.61496,-0.25767 3.96963,2.35018 -2.02285,8.17465 -13.5904,9.50965 -20.06963,7.10115 -2.989,-1.1111 -4.93797,-3.4495 -5.94863,-6.40115 -0.85398,-2.4941 -1.51427,-6.28173 -4.20547,-7.45321 -3.55522,-1.54756 -9.12349,-0.15936 -12.5959,0.92284 -8.11809,2.53015 -16.50115,4.54773 -23.8,9.09112 -2.32807,1.4492 -8.39411,3.2622 -9.13828,6.1879 -0.65043,2.5572 3.61352,1.0865 4.58828,0.6959 5.3327,-2.137 10.6055,-4.3599 16.1,-6.0635 0.77697,-0.2409 6.08908,-1.9122 5.7292,0.134 -0.29511,1.6779 -4.72447,3.3394 -6.0792,4.1364 -5.38647,3.1688 -9.33537,8.1386 -14,12.1974 -1.50536,1.3098 -6.2795,4.3484 -4.53906,6.9494 1.52688,2.2819 4.13094,-0.5377 5.82763,-0.014 1.13359,0.3497 0.80514,2.6875 1.62286,3.528 1.26201,1.2972 7.52977,2.9595 9.33857,2.8862 2.83227,-0.1149 5.49955,-2.7502 8.05,-3.8425 4.87321,-2.0873 10.30549,-3.3914 15.4,-4.8412 3.03575,-0.864 6.6496,-0.469 9.8,-0.7739 7.70318,-0.7454 14.91235,-1.7054 21.7,-5.7517 6.52206,-3.888 10.02537,-10.6881 16.45,-14.6898 7.47553,-4.65626 15.3429,-9.47954 23.45,-12.9493 11.07062,-4.73813 22.43226,-8.0052 32.9,-14.15379 4.39615,-2.58223 8.97529,-5.43729 12.54053,-9.12734 4.8815,-5.05236 8.32813,-11.52462 13.06894,-16.76857 10.59854,-11.72332 23.56976,-22.80733 29.62012,-37.8 5.24227,-12.99025 5.49413,-27.0137 8.19014,-40.6 0.59942,-3.02082 0.98322,-6.39775 2.56552,-9.09864 0.53955,-0.92095 1.65052,-2.54667 2.92852,-2.26201 1.71644,0.38234 2.97097,4.40395 3.89648,5.76065 3.02692,4.43716 7.27419,7.05908 11.18975,10.56083 1.14361,1.02274 3.71811,3.05676 3.49248,4.82412 -0.28143,2.20455 -3.16619,1.57465 -4.54248,1.16281 -2.98145,-0.89222 -9.29393,-5.19439 -11.25127,-0.79093 -1.69587,3.81521 -1.79287,8.84397 -2.08017,12.94317 -1.07709,15.36763 4.06791,30.82461 5.28144,46.2 3.49579,-1.65379 6.61828,-4.34168 9.8,-6.53037 6.83562,-4.70218 13.59623,-9.52889 20.3,-14.41699 12.54811,-9.14949 26.55702,-17.92136 37.39053,-29.13407 5.45181,-5.64259 9.54067,-13.31676 13.72787,-19.91857 6.9408,-10.94306 14.1833,-22.04133 19.3799,-33.95 3.8233,-8.76132 8.2634,-17.35119 12.5378,-25.9 1.1453,-2.29055 4.9322,-6.79612 3.7591,-9.40352 -2.0406,-4.53564 -10.593,1.09555 -13.2952,1.8293 -2.5294,0.68684 -5.0438,-2.04489 -7.35,-1.08076 -3.3623,1.40564 -4.4651,5.91155 -7.7,7.49355 -5.8033,2.83807 -18.08592,-4.65809 -19.13311,-10.63876 -0.16598,-0.94798 0.45289,-1.65234 1.29952,-1.99131 1.48055,-0.59276 3.07743,-0.32266 4.18159,-1.74522 0.9173,-1.18193 1.1535,-7.29129 3.2689,-6.94394 3.0687,0.5038 0.5216,9.26996 6.5187,6.72724 4.5786,-1.94123 2.9831,-9.63021 7.0281,-12.01484 2.6185,-1.54373 1.5582,6.25275 5.0134,1.84775 2.7389,-3.49162 1.663,-7.56789 2.3523,-11.52949 0.7617,-4.37731 2.8203,-8.30908 3.7468,-12.6 0.6579,-3.04695 0.1892,-6.54285 1.1607,-9.45 1.6762,-5.01596 5.952,-8.7653 1.3303,-13.64453 -1.7157,-1.81127 -6.7131,-4.72081 -9.3577,-4.08926 -1.7747,0.42383 -2.5202,2.22091 -4.6095,1.84229 -1.8704,-0.33898 -7.0082,-2.76241 -7.9372,0.54277 -0.5044,1.79452 0.4961,4.21692 1.0541,5.89873 1.2783,3.85291 2.5912,7.69214 3.8486,11.55 0.7855,2.40984 1.628,5.59565 -1.5169,6.73477 -1.9237,0.69684 -3.9945,-0.78725 -5.9486,-0.73897 -1.7874,0.0442 -3.4289,0.74691 -5.25,0.62207 -2.75456,-0.18885 -4.81543,-1.90304 -7.35,-2.76787 v -0.7 c 1.09403,-0.25908 2.36594,-0.95712 3.5,-0.82578 2.47559,0.28677 5.6335,3.23058 7.6371,-0.2707 0.972,-1.69865 0.4129,-4.7074 0.4129,-6.60352 0,-6.08817 -2.0935,-13.61069 0.9803,-19.25 4.4983,-8.25311 13.3687,-5.72724 20.7197,-5.9582 2.0495,-0.0643 3.9406,-1.61747 3.3182,-3.8418 -0.5407,-1.93226 -2.3434,-3.34619 -3.0708,-5.25 -1.6466,-4.30963 -1.2942,-10.80557 -5.5118,-13.66094 C 680.395,349.5344 670.497,351.69413 666.8,342.875 Z m 47.0135,32.33603 c -0.4371,-0.13495 -0.9271,-0.1282 -1.4663,0.0807 h -7e-4 c -1.7319,0.67196 -2.0156,3.91721 -2.8793,5.3833 -1.2284,2.08488 -3.0724,3.87461 -3.6319,6.3 -1.6455,7.13253 6.0521,11.41362 7.0499,17.85 0.4218,2.72088 -1.2003,5.24325 -2.0918,7.7 -1.2392,3.41455 -1.5248,6.67974 -0.2906,10.15 2.5419,7.14697 11.5927,7.47946 16.0283,12.95 3.0442,3.75464 -1.2517,7.8239 1.0787,11.54863 1.4538,2.32362 4.3209,3.4149 6.3854,5.08252 2.972,2.4007 4.2891,5.87899 8.4048,6.65547 3.4826,0.65702 7.0357,-0.79878 10.5,-0.0499 2.7516,0.59481 6.4573,4.34347 9.4035,2.65371 3.6765,-2.10871 0.1916,-7.87209 -2.4035,-9.11914 -2.7156,-1.30489 -5.9667,-0.57012 -8.3849,-2.55938 -2.8123,-2.31336 -2.7249,-6.7416 -4.8413,-9.66054 -2.0728,-2.85879 -5.6689,-3.76703 -7.9611,-6.33418 -3.0505,-3.41635 -4.0045,-8.05068 -6.9269,-11.51582 -2.732,-3.23947 -8.2709,-3.56913 -10.3824,-7.00684 -1.337,-2.17656 -0.4163,-5.01578 -0.032,-7.34453 0.5295,-3.20418 0.5896,-6.33914 -0.4464,-9.45 -1.0701,-3.2134 -2.8844,-6.10543 -3.5683,-9.45 -0.7045,-3.4454 -0.3098,-7.10408 -1.0951,-10.5 -0.2966,-1.28238 -1.1367,-2.95891 -2.4487,-3.36397 z m -62.2467,1.59415 c 3.68819,0.22213 7.3312,1.63346 9.95039,4.25263 0.94475,0.94473 4.91921,5.84396 2.08086,6.71084 -1.42371,0.43485 -3.59919,-0.57627 -5.19805,-0.40605 -1.65637,0.17637 -2.90273,1.48383 -4.55,1.60508 -1.68805,0.12433 -2.70267,-1.117 -4.2,-1.53467 -2.22187,-0.61977 -5.11529,-0.21858 -7.13877,-1.86621 -0.84148,-0.68522 -0.54517,-2.21904 -0.41152,-3.1418 0.49032,-3.38592 2.50475,-4.92717 5.80029,-5.44619 1.20323,-0.18951 2.4374,-0.24768 3.6668,-0.17363 z m 32.4194,4.24511 c -2.6136,-0.13665 -5.5516,0.60917 -6.3362,3.12471 3.1793,-3.4e-4 6.2792,-0.68744 9.45,-0.13467 0.6364,0.11091 2.6254,0.77468 2.8273,-0.29531 0.2487,-1.31797 -2.6585,-2.04044 -3.5273,-2.29688 -0.7075,-0.20883 -1.5426,-0.3523 -2.4138,-0.39785 z m -32.15417,0.0827 c -2.4479,0.0524 -4.96601,1.21073 -6.03203,3.39199 4.11966,-0.77622 7.45559,-1.05914 11.55,0 0.28215,-1.89347 -1.53505,-2.57048 -3.15,-3.07276 -0.74406,-0.23143 -1.552,-0.33669 -2.36797,-0.31923 z m 11.81797,36.06162 4.9,0.8333 4.55,-0.8333 8.4,2.68037 c -1.1191,2.21878 -3.4269,1.75 -5.6,1.75 h -15.05 c -2.14522,0 -4.46412,0.41443 -5.6,-1.75 z m 4.0004,7.68906 c 1.6933,0.014 3.4015,0.18355 4.3996,0.42793 1.3187,0.32317 3.15,1.76931 1.3187,2.90049 -1.5703,0.96993 -4.088,-0.11895 -5.8687,0.17705 -1.2482,0.20747 -2.54596,0.99463 -3.83428,0.67471 -1.86087,-0.46211 -2.17778,-2.92843 -0.32744,-3.67364 0.94018,-0.37867 2.61877,-0.52054 4.31212,-0.50654 z m 54.4544,33.81192 c -2.5873,0.72512 -4.675,5.28443 -6.0717,7.37939 -4.8579,7.28685 -9.2381,14.89166 -13.743,22.4 -7.9888,13.31508 -15.7713,26.76237 -24.0515,39.9 -4.073,6.46226 -7.8843,13.49628 -12.93909,19.25 -8.64161,9.8364 -20.4462,17.7533 -30.69951,25.82619 -14.48119,11.40166 -29.09315,22.81887 -44.1,33.52412 -3.4765,2.47999 -7.30178,4.16629 -11.2,5.84811 -2.03651,0.87857 -4.74668,1.70366 -5.9001,3.76593 -0.91095,1.62873 -0.36726,3.80296 -0.40468,5.58565 -0.0839,3.99535 -0.52407,13.13718 -4.23213,15.58662 -1.95019,1.28825 -3.16062,-2.00438 -3.66407,-3.33662 -1.65004,-4.36649 -2.33667,-9.07582 -1.23457,-13.65 2.26306,-9.39253 10.92498,-12.31156 15.83819,-19.6 4.57933,-6.79318 1.90113,-16.7175 -0.40264,-23.8 -5.20941,3.4747 -9.49928,9.54926 -12.95,14.7 -10.37454,15.48558 -14.66208,33.03797 -10.84863,51.45 2.07874,10.03652 8.2385,23.88102 19.94863,25.13912 6.67762,0.7175 13.04588,-1.8187 18.9,-4.753 11.06309,-5.5451 21.06772,-13.29494 30.45,-21.28845 37.2743,-31.75697 67.9895,-72.949 89.8639,-116.69767 6.8961,-13.79224 13.8623,-27.68127 18.753,-42.35 1.2333,-3.6991 4.5498,-10.05507 3.5396,-14 -0.5205,-2.03305 -2.8586,-3.85175 -4.3565,-5.18916 -2.1596,-1.92816 -7.2614,-6.59651 -10.4952,-5.69023 z m 28.5633,6.73408 c -0.6679,-0.0648 -1.2583,0.13197 -1.696,0.75674 -1.3929,1.9878 1.8982,6.30666 2.8991,7.93857 4.4204,7.2076 9.3227,14.11771 14.227,21 16.5601,23.23955 33.2249,46.60915 51.856,68.25 4.1522,4.823 8.3493,9.60351 12.5877,14.35 2.5775,2.88652 5.0201,5.86145 9.1581,5.95 -0.1845,-3.54872 -3.1761,-6.33405 -5.1481,-9.1 -4.43,-6.2133 -8.7541,-12.51309 -12.9316,-18.9 -9.6982,-14.82775 -19.5793,-29.90915 -28.0123,-45.5 -5.027,-9.29397 -8.3134,-19.51374 -14.6774,-28 -3.429,-4.57239 -7.5696,-9.74318 -13.0806,-11.87607 -2.9555,-1.14387 -6.1211,-0.79174 -9.1,-1.70352 -1.3768,-0.42144 -4.0784,-2.97134 -6.0819,-3.16572 z m -158.17542,1.78554 c -1.92968,-0.092 -4.02695,1.13584 -5.84268,1.57637 -2.35603,0.57162 -4.68052,0.19025 -7,0.59815 -3.51905,0.61886 -6.69125,2.90963 -9.45,5.04628 -10.29349,7.97237 -14.70857,19.91219 -20.38682,31.18897 -4.25411,8.44851 -9.54811,17.1024 -12.16318,26.25 10.97326,-7.72989 17.33952,-22.66215 24.52734,-33.6 8.27719,-12.5956 19.20903,-22.87634 32.17266,-30.45 -0.58928,-0.40202 -1.2141,-0.57909 -1.85732,-0.60977 z m 150.96212,13.13184 c -2.5747,0.18324 -3.7099,6.14589 -4.4434,8.12793 -3.2268,8.71962 -7.4498,17.0407 -11.1631,25.55 -5.8969,13.51371 -12.9818,26.59136 -19.9903,39.55 -10.7496,19.87605 -21.6781,39.49519 -35.6063,57.4 C 653.7135,633.9061 633.72996,656.355 609.4,672.575 c -10.14447,6.763 -23.34834,14.0802 -36.05,12.0962 -13.62428,-2.1281 -18.92911,-15.4088 -22.29814,-27.1462 -0.89008,-3.101 -1.42244,-6.48837 -2.71592,-9.45 -0.43477,-0.99543 -1.27465,-2.50421 -2.59971,-1.98516 -1.93876,0.75936 -1.98817,4.12999 -2.23125,5.83516 -0.81542,5.7201 -0.86122,11.7547 -0.31445,17.5 1.46622,15.4066 1.56011,30.2446 7.81211,44.8 3.05203,7.1055 8.33922,14.3156 16.74736,14.6863 7.19794,0.3174 14.28794,-3.077 20.3,-6.7074 12.32094,-7.44 23.12012,-17.449 33.25,-27.5789 40.07901,-40.079 73.9143,-89.23425 97.542,-140.7 8.3379,-18.16153 16.0691,-36.68396 22.3911,-55.65 1.5207,-4.56192 3.2339,-9.25364 4.079,-14 0.2959,-1.66182 -0.43,-4.07934 -2.5573,-3.92793 z m 7.7458,10.16914 c -1.1418,0.24891 -1.3867,1.93308 -1.6529,2.85879 -0.8813,3.06434 -1.9395,6.07531 -2.9477,9.1 -4.0867,12.26008 -8.6403,24.40102 -13.4401,36.4 -10.9244,27.30994 -23.0162,54.19873 -38.1671,79.45 -10.747,17.9115 -23.9195,34.64353 -36.74114,51.10002 -18.46444,23.699 -38.27894,49.4045 -62.85166,67.0974 -10.54486,7.5925 -27.02035,13.6527 -39.2,5.8079 -6.65259,-4.2849 -10.27768,-12.104 -12.71621,-19.3553 -5.41122,-16.091 -6.53379,-33.91 -6.53379,-50.75 0,-6.8226 1.08576,-14.2697 0.20166,-21 -0.2861,-2.17794 -0.0797,-4.84655 -1.73975,-6.55224 -1.86206,-1.91331 -4.97164,-0.94669 -7.21191,-0.40265 -6.0871,1.47834 -12.04734,3.4228 -17.5,6.55978 -3.90065,2.24406 -7.6577,5.49761 -9.20527,9.84511 -1.40472,3.9462 -0.57304,8.1908 -0.27549,12.25 0.59347,8.096 1.78824,16.1277 3.03242,24.15 4.19829,27.07 11.4045,56.4861 28.10391,78.75 9.38504,12.5123 24.00383,22.6244 40.29443,20.5953 11.51856,-1.4346 21.19177,-9.9371 29.05,-17.7953 18.19863,-18.1986 32.37045,-41.4717 43.83613,-64.4 3.74302,-7.4851 7.23832,-15.1747 11.46797,-22.4 0.55444,-0.9471 3.83535,-7.107 5.23633,-5.4366 1.3727,1.6366 -0.429,6.7314 -0.83877,8.5866 -1.88334,8.5269 -5.21956,16.5852 -8.84365,24.5 -10.9976,24.0182 -24.22475,48.4114 -40.50635,69.3 -3.72202,4.7752 -7.81914,9.2447 -12.45166,13.1462 -2.33682,1.9681 -6.06228,3.612 -7.7916,6.1366 -2.56777,3.7486 -2.23358,11.3035 -2.80684,15.7172 -2.16207,16.6464 1.20967,33.0141 0.067,49.7 -1.44008,21.0286 -3.3791,42.0196 -5.62667,63 -1.41647,13.2224 -3.90108,26.2708 -4.81045,39.55 -0.69058,10.0843 0.89808,19.7339 1.01719,29.75 0.15825,13.308 -1.25599,26.6998 -2.89844,39.9 -1.71829,13.81 -4.87754,27.7425 -5.48652,41.65 -0.25979,5.9331 1.73598,11.3648 1.73633,17.15 2.6e-4,3.8396 0.20044,7.6382 -1.4916,11.2 -0.68511,1.4421 -2.86084,4.5066 -1.91338,6.1482 1.22797,2.1277 8.10255,-0.1095 10.05498,-0.3985 10.28811,-1.5229 20.49091,-0.2781 30.8,-1.2592 27.68254,-2.6343 50.02214,-18.6157 71.75,-34.6308 15.3031,-11.2797 30.6972,-22.4944 45.15,-34.8647 8.1432,-6.9697 16.7889,-14.4223 22.5976,-23.545 2.46,-3.8637 2.8512,-8.4648 5.2165,-12.2486 1.9278,-3.0842 6.461,-3.0355 7.8394,-6.3028 1.1258,-2.6684 1.195,-5.9114 1.5948,-8.7486 0.9336,-6.6231 1.516,-13.2859 1.9831,-19.95 1.5683,-22.3725 1.2682,-44.8354 2.8,-67.2 2.1627,-31.576 2.4475,-63.2286 3.8323,-94.85 1.4695,-33.5557 1.9008,-67.6294 -0.3951,-101.15 -0.9683,-14.1375 -2.8169,-28.2426 -4.2274,-42.35 -3.4811,-34.81625 -4.8709,-69.77271 -7.2598,-104.65 -0.8371,-12.2227 -0.5613,-24.55523 -1.7219,-36.75 -1.0218,-10.73562 0.9841,-22.80876 -1.9592,-33.25 -0.6163,-2.18626 -3.3291,-9.83914 -6.4497,-9.15879 z M 768.65,520.325 c -0.7298,1.73912 -0.35,4.07743 -0.35,5.95 0,3.90054 -0.1844,7.6523 -0.014,11.55 0.5174,11.81464 0.5734,23.55273 1.3823,35.35 2.8427,41.46156 7.6568,82.794 10.5628,124.25 0.9576,13.6603 2.2266,27.3129 3.4946,40.95 0.3015,3.2435 0.62,6.6598 1.5244,9.8 0.2409,0.8363 0.6862,2.6619 1.8942,2.4773 1.1858,-0.1811 1.716,-2.2419 2.031,-3.1773 1.1518,-3.4208 1.9622,-7.0101 2.8841,-10.5 3.8182,-14.4544 7.3858,-28.9962 11.3886,-43.4 3.3062,-11.8969 8.0452,-25.0554 8.588,-37.45 0.6254,-14.28116 -3.2856,-28.397 -1.2366,-42.7 1.0067,-7.02723 2.8835,-13.93451 6.0662,-20.3 1.2716,-2.54324 5.1061,-6.16238 4.4461,-9.1 -0.6417,-2.85617 -3.7207,-4.86248 -5.762,-6.70946 -4.332,-3.91972 -8.3238,-8.23845 -12.6,-12.22197 -8.8288,-8.22461 -15.6151,-18.68972 -22.2831,-28.66857 -3.5326,-5.28664 -7.0857,-12.01795 -12.0169,-16.1 z m -166.29307,32.58965 c 0.68996,0.22786 1.37425,0.58244 1.79307,0.75947 3.51854,1.4875 7.51985,2.2148 10.85,4.06738 1.04436,0.58101 3.72916,2.22811 2.31807,3.63742 -2.80951,2.80598 -12.09008,-1.36311 -14.53116,-3.40022 -0.75353,-0.62884 -3.50517,-4.12286 -2.25654,-5.06131 0.44097,-0.33145 1.1366,-0.23058 1.82656,-0.003 z m 231.28437,41.66572 c -0.5331,-0.0743 -1.0812,-0.0541 -1.6413,0.0964 -3.7503,1.0079 -6.074,7.13804 -7.4478,10.34824 -4.2219,9.86643 -7.8373,26.58366 -1.6057,36.4 3.7201,5.86016 12.5312,7.32911 18.5035,9.89842 9.3562,4.02507 18.6417,8.21267 28,12.24997 9.5926,4.1385 18.8883,8.1779 29.4,4.6772 6.4516,-2.1486 9.659,-6.4212 13.8127,-11.4242 4.2694,-5.14243 11.861,-4.81732 16.599,-9.21622 1.3502,-1.25353 2.2119,-3.97614 -0.3185,-4.38323 -2.814,-0.45272 -5.902,0.63441 -8.7432,0.64806 -8.5427,0.0412 -14.6316,4.58168 -22.05,8.11153 -2.3734,1.12931 -4.5259,0.63466 -6.65,-0.77588 -6.1173,-4.06217 -11.2859,-9.52157 -16.45,-14.68565 -9.2219,-9.22194 -17.7559,-18.89846 -26.3498,-28.7 -3.3232,-3.79018 -6.7761,-7.8393 -10.7502,-10.96553 -1.2452,-0.97958 -2.7093,-2.05618 -4.3087,-2.2791 z m -107.6927,7.31581 c 2.5099,-0.35361 2.1316,4.50296 2.0966,5.92882 -0.1619,6.60881 -1.605,13.3839 -2.3912,19.95 -3.3704,28.15 -7.0547,56.2581 -10.904,84.35 -8.0656,58.8628 -16.4931,117.9963 -27.4361,176.4 -7.6828,41.004 -16.5995,84.1119 -35.12845,121.8 -10.82742,22.0232 -23.27086,43.2631 -39.33125,61.95 -3.70585,4.3119 -7.45803,8.6022 -11.5042,12.5986 -1.66487,1.6445 -4.06399,3.9647 -6.64316,3.7666 -2.80351,-0.2154 -1.37166,-3.7343 -0.54415,-5.1652 2.67431,-4.6243 6.56605,-8.6805 9.76788,-12.95 14.93187,-19.9108 25.30266,-42.6399 34.10244,-65.8 11.33864,-29.8421 19.56834,-60.8615 27.67669,-91.7 5.2612,-20.0102 10.8283,-39.9914 15.292,-60.2 10.429,-47.2167 17.9284,-95.2738 24.6025,-143.15 3.8399,-27.5451 7.7956,-55.0849 11.8508,-82.6 0.9695,-6.57822 2.1681,-13.3778 4.5787,-19.6 0.6511,-1.68063 1.7879,-5.27915 3.9149,-5.57882 z M 414.63389,658.9066 c 1.18854,-0.058 2.31751,0.2226 3.23613,0.9645 4.55784,3.6812 -3.44588,5.7148 -5.87002,5.7039 -1.87976,-0.01 -3.71775,-0.3447 -5.6,-0.35 0.56659,-2.9283 4.66827,-6.1451 8.23389,-6.3184 z m 535.31751,6.4715 c -2.4325,0.6445 -1.6014,2.6165 -2.3126,4.3607 -0.6109,1.4982 -2.4716,1.728 -3.3654,2.9688 -0.6196,0.8602 -0.1658,2.0296 -0.8483,2.8376 -0.7916,0.9371 -2.2671,0.7292 -3.0639,1.6899 -1.0041,1.2107 -0.1695,3.1499 -1.6912,4.0804 -1.7042,1.042 -4.5477,-0.5116 -5.8071,1.5073 -1.064,1.7057 0.345,3.4741 1.6926,4.4331 2.6374,1.8767 8.6677,4.7171 11.8945,4.0379 1.762,-0.3708 4.7313,-0.8717 6.1852,-1.9222 1.3653,-0.9866 1.7324,-2.8951 3.2976,-3.673 1.6042,-0.7972 3.5129,0.1584 5.1981,-0.6036 1.9779,-0.8943 1.1715,-2.5687 2.0603,-4.1063 0.7641,-1.322 2.2841,-1.9574 2.707,-3.5151 1.3456,-4.9562 -7.5831,-8.9667 -11.0482,-10.7584 -1.4706,-0.7604 -3.1748,-1.7937 -4.8986,-1.3371 z m -28.953,4.5363 c -1.101,0.2124 -2.0372,0.7297 -2.6243,1.6489 -2.7035,4.2327 5.4797,3.9179 7.4259,3.5287 1.5649,-0.3129 3.0702,-0.8812 4.55,-1.467 -1.2655,-2.2397 -6.0485,-4.3476 -9.3516,-3.7106 z M 825,673.1232 c -1.7967,0.1725 -3.0851,2.2578 -3.8937,3.6518 -2.2587,3.8937 -3.6721,8.3483 -5.0894,12.6 -5.875,17.625 -10.0103,35.7849 -15.4191,53.55 -2.3008,7.5567 -7.1705,16.3846 -6.2966,24.5 1.0566,9.8123 8.2285,17.3242 6.7491,27.65 -1.3737,9.5881 -7.596,17.3304 -9.6893,26.6 -1.6489,7.3022 0.931,14.4139 -1.791,21.7 -2.1456,5.7433 -6.0537,10.539 -8.5606,16.1 -2.5863,5.7369 -3.6582,11.9827 -4.2499,18.2 -0.8885,9.3357 0.6798,19.413 3.3427,28.35 2.5247,8.473 5.9708,15.9069 6.6343,24.85 0.5927,7.9889 -2.7247,16.2013 -5.6266,23.45 -2.3569,5.8872 -4.7961,11.7706 -3.0953,18.2 3.9949,15.1021 19.7634,27.0769 32.6354,34.3984 3.9869,2.2677 10.5246,6.6577 15.3932,5.3902 3.7839,-0.9851 1.9344,-10.5621 2.1382,-13.5386 0.9777,-14.2737 1.3635,-28.7474 1.7138,-43.05 0.099,-4.0364 -0.4813,-8.6614 0.5011,-12.6 0.3605,-1.4451 1.6852,-3.2578 3.3537,-3.1616 3.3447,0.1929 3.0989,4.7308 3.1548,7.0116 0.1766,7.2081 -0.049,14.8935 0.795,22.05 1.1667,9.8875 -1.7758,22.6929 2.8322,31.85 4.1602,8.2673 14.9851,9.6173 17.1342,19.6 1.6801,7.8044 -5.014,12.809 -4.9519,19.95 0.036,4.2048 5.4316,9.6816 9.7357,9.0248 7.2061,-1.0995 7.3497,-14.1796 7.35,-19.5248 0.001,-20.8363 0.8684,-42.219 -1.1095,-63 -1.5259,-16.0327 -2.4134,-33.2264 -1.3091,-49.35 2.2722,-33.1753 9.914,-65.8613 12.1872,-99.05 1.4718,-21.4892 -0.5726,-43.3754 -2.7098,-64.75 -1.6357,-16.3597 -3.3419,-32.7016 -5.613,-49 -0.5535,-3.9724 -1.1123,-7.943 -1.7678,-11.9 -0.3488,-2.1058 -0.4189,-4.2862 -2.1485,-5.7688 -4.9978,-4.2842 -12.8386,-7.2849 -19.2295,-8.5798 -2.2722,-0.4604 -6.1255,-1.0362 -7.7369,1.1272 -1.713,2.2998 -1.0131,8.3148 -1.0131,11.1214 0,9.0767 0.034,18.231 -0.3637,27.3 -0.7604,17.3626 -0.6154,34.7694 -1.0411,52.15 -0.4738,19.3426 -1.3952,38.7447 -1.3952,58.1 0,12.256 -0.7,24.4912 -0.7,36.75 0,2.1309 0.6134,11.6535 -3.8172,10.2197 -3.0536,-0.9882 -2.1328,-6.7849 -2.1328,-9.1697 0,-9.4585 -0.35,-18.8802 -0.35,-28.35 0,-40.2594 -0.7,-80.4807 -0.7,-120.75 0,-11.448 -0.2948,-22.8482 -0.35,-34.3 -0.011,-2.1958 -0.046,-9.9332 -3.5,-9.6018 z m -65.4562,355.2555 c -3.5724,0.4407 -6.2639,8.9945 -8.0452,11.6963 -9.5722,14.5192 -13.2692,30.4814 -3.7775,46.2 2.2999,3.8086 4.8633,7.5431 7.8839,10.8186 0.9239,1.002 2.3951,2.7575 3.9245,2.64 1.7151,-0.1317 1.4205,-2.4748 1.4205,-3.6586 0,-3.8661 -0.3437,-7.6812 -0.35,-11.55 -0.023,-14.357 0.1806,-28.6877 0.3514,-43.05 0.04,-3.3637 0.8139,-6.7905 0.6835,-10.15 -0.048,-1.2402 -0.4454,-3.1492 -2.0911,-2.9463 z m -27.6424,54.6144 c -1.5494,0.075 -2.5065,1.5418 -2.7269,2.9319 -0.5837,3.6814 -0.075,7.8231 -0.075,11.55 0,12.8928 0.8398,26.0774 2.599,38.85 0.494,3.586 1.1204,11.189 6.151,11.3791 1.4418,0.054 2.341,-1.2809 3.15,-2.2791 2.1597,-2.665 4.3282,-5.3332 6.4224,-8.05 3.1553,-4.0933 8.9986,-9.8459 9.9128,-15.05 0.7865,-4.4778 -1.8802,-7.9545 -4.5801,-11.2 -3.8192,-4.5908 -7.9046,-9.1037 -11.3319,-14 -2.3487,-3.3552 -3.8543,-7.2447 -5.7648,-10.85 -0.7296,-1.3769 -1.9495,-3.369 -3.757,-3.2819 z m -51.7433,53.1371 c 3.5297,0.5215 7.8667,6.1844 4.1214,7.6296 -3.2673,1.2607 -9.7283,-5.9883 -5.559,-7.5107 0.4454,-0.1626 0.9334,-0.1934 1.4376,-0.1189 z m -103.65947,1.9018 c 4.84403,-0.1874 0.96398,8.1239 -2.44863,8.3582 -5.1713,0.355 -0.88532,-8.2293 2.44863,-8.3582 z m 177.80277,7.5762 c -3.8132,0.5757 -7.4088,9.2605 -5.0053,12.3423 2.2991,2.9477 9.4929,2.0049 12.6971,1.3945 1.7891,-0.3407 2.1412,-2.2809 1.3972,-3.77 -0.7559,-1.5131 -2.3279,-2.529 -3.3523,-3.85 -1.5523,-2.0016 -2.2691,-6.6403 -5.7367,-6.1168 z"
       inkscape:label="Christ" /></g></svg>
